<svg xmlns="http://www.w3.org/2000/svg" width="520.52" height="575.725" viewBox="0 0 520.52 575.725">
  <g id="Group_1314" data-name="Group 1314" transform="translate(0 0)">
    <path id="Path_11" data-name="Path 11" d="M637.266,285.816a10.855,10.855,0,0,1,7.89,12.922,10.406,10.406,0,0,1-.545,1.633l27.767,25.751-18.855,4.432-23.477-25.133a10.825,10.825,0,0,1-5.535-12,10.36,10.36,0,0,1,12.48-7.674Q637.129,285.779,637.266,285.816Z" transform="translate(-339.74 -162.138)" fill="#fbd6bd"/>
    <path id="Path_12" data-name="Path 12" d="M663.213,315.067l-10.828,14.638,27.132,25.651a15.619,15.619,0,0,0,14.735,3.8h0A14.966,14.966,0,0,0,705.354,345l.718-59.046a16.136,16.136,0,0,0-14.947-16.4h0a15.3,15.3,0,0,0-16.43,14.086q-.018.237-.029.475a15.7,15.7,0,0,0,.009,1.691l3.3,42.707Z" transform="translate(-339.74 -162.138)" fill="#feaa4b"/>
    <path id="Path_13" data-name="Path 13" d="M585.634,549.852,530.59,548.63l21.177-88.844-30.975-85.111.079-.3,22.9-87.615L517.614,207l50.559-20.686L597.989,289.7l-.074.271-22.737,83.216,30.992,86.428-.065.284Zm-52.524-3.167,50.936,1.132L604.09,459.74l-31.008-86.472,22.83-83.553-29.045-100.7-46.773,19.137L545.851,286.7l-.075.285-22.891,87.6,30.966,85.089-.07.291Z" transform="translate(-339.74 -162.138)" fill="#3f3d56"/>
    <path id="Path_14" data-name="Path 14" d="M653.822,729.964a48.675,48.675,0,0,1-39.259-14.645c-6.591-6.948-11.113-15.892-15.487-24.542-1.273-2.517-2.589-5.12-3.928-7.614a15.534,15.534,0,0,1,1.612-17.332,15.272,15.272,0,0,1,16.3-5.209l.638.185,5.744,22.414c.857-3.343,2.7-10.876,3.858-18.256l.1-.618.572.255a78.137,78.137,0,0,1,16.786,10.115A80.529,80.529,0,0,1,670.87,735.36l.015.7Z" transform="translate(-339.74 -162.138)" fill="#2fc923"/>
    <path id="Path_15" data-name="Path 15" d="M570.13,200.227a26.131,26.131,0,0,1-12.478,22.279,19.159,19.159,0,0,1-1.772,1,25.78,25.78,0,0,1-6.9,2.4q-1,.195-2.04.3a24.175,24.175,0,0,1-2.97.18,25.935,25.935,0,0,1-8.36-1.37v-.01a21.245,21.245,0,0,1-2.54-1,26.13,26.13,0,0,1-15.23-22.42c-.02-.45-.03-.91-.03-1.36,0-.21,0-.43.01-.64a26.158,26.158,0,1,1,52.312.64Z" transform="translate(-339.74 -162.138)" fill="#e6e6e6"/>
    <path id="Path_16" data-name="Path 16" d="M597.13,286.727c0,.33-.01.65-.03.98a19.029,19.029,0,0,1-.15,2,26.194,26.194,0,0,1-19.47,22.36c-.8.2-1.6.37-2.42.5a26.245,26.245,0,0,1-4.09.32,25.628,25.628,0,0,1-3.74-.27c-.68-.09-1.36-.22-2.02-.37a25.763,25.763,0,0,1-9.14-4.02c-.57-.39-1.13-.81-1.66-1.25a26.148,26.148,0,0,1,1.29-41.48v-.01a20.112,20.112,0,0,1,1.74-1.15,25.779,25.779,0,0,1,9.69-3.49c.68-.1,1.37-.17,2.06-.21.59-.05,1.18-.07,1.78-.07a26.048,26.048,0,0,1,6.35.78,23.4,23.4,0,0,1,2.38.72,26.137,26.137,0,0,1,17.43,24.66Z" transform="translate(-339.74 -162.138)" fill="#e6e6e6"/>
    <path id="Path_17" data-name="Path 17" d="M574.13,373.227a26.129,26.129,0,0,1-10.718,21.1,18.969,18.969,0,0,1-1.682,1.131,25.248,25.248,0,0,1-6.42,2.87q-.975.3-1.98.51a26.452,26.452,0,0,1-10.78-.01,23.894,23.894,0,0,1-2.55-.68,26.181,26.181,0,0,1-18.16-23.52c-.02-.47-.03-.93-.03-1.4,0-.2,0-.4.01-.6a26.122,26.122,0,0,1,12.86-21.93,22.073,22.073,0,0,1,2.41-1.26,26.023,26.023,0,0,1,10.88-2.37c.24,0,.48,0,.72.02a20.154,20.154,0,0,1,2.06.13,25.488,25.488,0,0,1,7.35,1.89c.63.26,1.24.54,1.84.86a26.131,26.131,0,0,1,14.19,23.26Z" transform="translate(-339.74 -162.138)" fill="#e6e6e6"/>
    <path id="Path_18" data-name="Path 18" d="M605.13,459.677v.05q0,.99-.09,1.95a26.132,26.132,0,0,1-18.91,23.2v.01a22.2,22.2,0,0,1-2.28.54,26.129,26.129,0,0,1-4.88.46,24.616,24.616,0,0,1-3.11-.19c-.67-.07-1.34-.18-2-.31a25.91,25.91,0,0,1-9.68-4.08,21.409,21.409,0,0,1-1.72-1.29,26.151,26.151,0,0,1-2.02-38.75v-.01c.51-.51,1.04-1,1.59-1.46a25.818,25.818,0,0,1,8.71-4.9c.64-.22,1.28-.41,1.94-.57a26.049,26.049,0,0,1,6.29-.76q.57,0,1.14.03c.78.03,1.56.1,2.32.2v.01h.01a26.129,26.129,0,0,1,22.69,25.87Z" transform="translate(-339.74 -162.138)" fill="#e6e6e6"/>
    <path id="Path_19" data-name="Path 19" d="M584.13,546.227a26.16,26.16,0,0,1-52.28,1.43c-.03-.48-.04-.95-.04-1.43,0-.19,0-.38.01-.57a26.124,26.124,0,0,1,13.64-22.41,23.421,23.421,0,0,1,2.68-1.26,25.894,25.894,0,0,1,9.83-1.92q.885,0,1.77.06c.7.05,1.39.12,2.07.22a25.439,25.439,0,0,1,6.99,2.07q.915.405,1.8.9A26.13,26.13,0,0,1,584.13,546.227Z" transform="translate(-339.74 -162.138)" fill="#e6e6e6"/>
    <path id="Path_20" data-name="Path 20" d="M776.86,181.527c34.543,68.685-34.176,59.1-44.579,58.232-20.039-1.67-37.344,3.734-35.477-42.012.82-20.092,22.837-35.609,42.946-35.609S767.825,163.562,776.86,181.527Z" transform="translate(-339.74 -162.138)" fill="#2f2e41"/>
    <path id="Path_21" data-name="Path 21" d="M428.263,545.794h14.516l6.906-55.992H428.26Z" fill="#fbd6bd"/>
    <path id="Path_22" data-name="Path 22" d="M787.349,709.239V699.4l-3.816.233-15.535.92-3.6.221-2.749,32.96-.147,1.767h10.307l.331-1.755,1.5-7.976,3.865,7.976.847,1.755h27.328a6.175,6.175,0,0,0,6.135-6.148C812.971,723.964,790.245,712.319,787.349,709.239Z" transform="translate(-339.74 -162.138)" fill="#101010"/>
    <path id="Path_23" data-name="Path 23" d="M362.977,545.794H348.461L341.555,489.8H362.98Z" fill="#fbd6bd"/>
    <path id="Path_24" data-name="Path 24" d="M683.37,709.239V699.4l3.816.233,15.535.92,3.6.221,2.749,32.96.147,1.767H698.905l-.331-1.755-1.5-7.976-3.865,7.976-.847,1.755H665.038a6.175,6.175,0,0,1-6.135-6.148C657.749,723.964,680.474,712.319,683.37,709.239Z" transform="translate(-339.74 -162.138)" fill="#101010"/>
    <path id="Path_25" data-name="Path 25" d="M681.058,427.625s-9.985,55.9-4.609,87.388c.41,7.514-5.436,30.09-4.59,56.514,1.391,43.434,9.6,96.937,7,109l28-2s.932-11.8,2.5-29.888c.187-2.164-2.7-4.777-2.5-7.112.239-2.724,3.576-5.2,3.838-8.127q.325-3.638.672-7.463c.184-2.027-2.7-3.315-2.509-5.41.238-2.595,3.557-6.013,3.808-8.7,1.525-16.315,3.271-34.119,5.139-51.584,1.227-11.474,2.507-22.8,3.811-33.464.283-2.313-2.043-5.011-1.758-7.256.291-2.294,3.194-4.133,3.486-6.346.412-3.11,4.1-3.733,4.514-6.654.331-2.343-2.614-7.02-2.282-9.223,3.242-21.557,6.461-36.03,9.247-35.826,2.3.168,4.941,10.136,7.676,25.707.345,1.964,4.012,4.208,4.359,6.342.361,2.215-2.6,4.327-2.236,6.707.385,2.531-1.149,5.6-.764,8.293.372,2.6,2.665,4.832,3.036,7.568,4.175,30.75,8.254,69.215,11.365,100.884.243,2.477,3.367,5.16,3.6,7.548.245,2.527-2.4,4.753-2.174,7.163.314,3.29,4.89,6.8,5.174,9.837.281,3-3.728,5.537-3.478,8.252,1.554,16.872,2.478,27.748,2.478,27.748l28,1S790.9,522.1,795.5,506.353s1.536-72.43-9.985-78.728S681.058,427.625,681.058,427.625Z" transform="translate(-339.74 -162.138)" fill="#131313"/>
    <path id="Path_26" data-name="Path 26" d="M720.594,244.041l-3.4,17.008L682.86,272.527l12.3,92.837-13.243,60.024c-3.416,3.957-4.721,7.943-2.642,11.976l112.584,1.163c2.12-4.05,2.846-8.039,0-12l-5-8-5-12,1-5-2.529-10.872-1.923-6.8-3.246-11.487,20.193-93.4L759.37,265.017l-6.461-20.976Z" transform="translate(-339.74 -162.138)" fill="#ff8e0d"/>
    <circle id="Ellipse_7" data-name="Ellipse 7" cx="28.089" cy="28.089" r="28.089" transform="translate(365.305 17.349)" fill="#fbd6bd"/>
    <path id="Path_27" data-name="Path 27" d="M769.625,196.813c-3.37,3.333-6.087,5.6-11.2,5.6-12.94,2.96-25.254,4.668-36.13,3.566a13.458,13.458,0,0,0-1.167-8.076,10.219,10.219,0,0,1-4.2,7.273,43.415,43.415,0,0,1-8.916-2.763,18.6,18.6,0,0,1-11.1-3.66c-5.48-23.639,15.255-31.733,36.775-29.016a40.983,40.983,0,0,1,7.628-.728C757.348,169.011,767.72,179.038,769.625,196.813Z" transform="translate(-339.74 -162.138)" fill="#2f2e41"/>
    <path id="Path_28" data-name="Path 28" d="M566.33,314.527c-.07.16-.15.31-.23.46l-11.37,22.45c-.84,1.67-1.61,3.36-2.31,5.09h-2.15a62.7,62.7,0,0,1,2.67-6l11.16-22Z" transform="translate(-339.74 -162.138)" fill="#3f3d56"/>
    <path id="Path_29" data-name="Path 29" d="M567.52,256.527h-2.2a65.625,65.625,0,0,0-8.49-13.67,67.95,67.95,0,0,1-8.88-14.33h2.22a65.379,65.379,0,0,0,8.22,13.08,67.308,67.308,0,0,1,9.13,14.92Z" transform="translate(-339.74 -162.138)" fill="#3f3d56"/>
    <path id="Path_30" data-name="Path 30" d="M231.11,268.389h-2.22l-13.52-28h2.23Z" fill="#3f3d56"/>
    <path id="Path_31" data-name="Path 31" d="M572.69,488.527h2.15c-.15.39-.3.77-.46,1.16l-11,26.84h-2.16l11.31-27.6C572.58,488.8,572.64,488.657,572.69,488.527Z" transform="translate(-339.74 -162.138)" fill="#3f3d56"/>
    <path id="Path_32" data-name="Path 32" d="M582.69,488.527h2.15c-.15.39-.3.77-.46,1.16l-11,26.84h-2.16l11.31-27.6C582.58,488.8,582.64,488.657,582.69,488.527Z" transform="translate(-339.74 -162.138)" fill="#3f3d56"/>
    <path id="Path_33" data-name="Path 33" d="M576.33,314.527c-.08.15-.15.31-.23.46l-11.37,22.45q-1.275,2.505-2.31,5.09h-2.16a65.383,65.383,0,0,1,2.68-6l11.16-22Z" transform="translate(-339.74 -162.138)" fill="#3f3d56"/>
    <path id="Path_34" data-name="Path 34" d="M577.51,256.527h-2.19a65.891,65.891,0,0,0-8.49-13.67,67.943,67.943,0,0,1-8.88-14.33h2.21a66.349,66.349,0,0,0,8.23,13.08A67.269,67.269,0,0,1,577.51,256.527Z" transform="translate(-339.74 -162.138)" fill="#3f3d56"/>
    <path id="Path_35" data-name="Path 35" d="M241.11,268.389h-2.22l-13.51-28h2.22Z" fill="#3f3d56"/>
    <path id="Path_36" data-name="Path 36" d="M559.69,488.527h2.15c-.15.39-.3.77-.46,1.16l-11,26.84h-2.16l11.31-27.6C559.58,488.8,559.64,488.657,559.69,488.527Z" transform="translate(-339.74 -162.138)" fill="#3f3d56"/>
    <path id="Path_37" data-name="Path 37" d="M553.33,314.527c-.08.16-.15.31-.23.46l-11.37,22.45q-1.275,2.505-2.3,5.09h-2.16a65.313,65.313,0,0,1,2.67-6l11.16-22Z" transform="translate(-339.74 -162.138)" fill="#3f3d56"/>
    <path id="Path_38" data-name="Path 38" d="M554.52,256.527h-2.19a65.674,65.674,0,0,0-8.5-13.67,68.2,68.2,0,0,1-8.88-14.33h2.21a66.176,66.176,0,0,0,8.23,13.08A67.768,67.768,0,0,1,554.52,256.527Z" transform="translate(-339.74 -162.138)" fill="#3f3d56"/>
    <path id="Path_39" data-name="Path 39" d="M204.6,240.389l13.51,28h-2.22l-13.52-28Z" fill="#3f3d56"/>
    <path id="Path_40" data-name="Path 40" d="M405.74,191.707h-53a13,13,0,0,0,0,26h53a13,13,0,0,0,0-26Z" transform="translate(-339.74 -162.138)" fill="#6c63ff"/>
    <rect id="Rectangle_34" data-name="Rectangle 34" width="102.43" height="2" transform="translate(91.676 38.699) rotate(-0.827)" fill="#3f3d56"/>
    <path id="Path_41" data-name="Path 41" d="M424.74,537.707h-53a13,13,0,0,0,0,26h53a13,13,0,1,0,0-26Z" transform="translate(-339.74 -162.138)" fill="#6c63ff"/>
    <rect id="Rectangle_35" data-name="Rectangle 35" width="102.43" height="2" transform="translate(110.675 384.701) rotate(-0.827)" fill="#3f3d56"/>
    <path id="Path_42" data-name="Path 42" d="M412.74,364.707h-53a13,13,0,0,0,0,26h53a13,13,0,1,0,0-26Z" transform="translate(-339.74 -162.138)" fill="#6c63ff"/>
    <rect id="Rectangle_36" data-name="Rectangle 36" width="102.43" height="2" transform="translate(98.675 211.7) rotate(-0.827)" fill="#3f3d56"/>
    <path id="Path_43" data-name="Path 43" d="M753.98,279.707h-53a13,13,0,0,0,0,26h53a13,13,0,1,0,0-26Z" transform="translate(-339.74 -162.138)" fill="#6c63ff"/>
    <path id="Path_44" data-name="Path 44" d="M348.585,128.7l-115.468-1.479.029-2L348.614,126.7Z" fill="#3f3d56"/>
    <path id="Path_45" data-name="Path 45" d="M763.98,451.707h-53a13,13,0,0,0,0,26h53a13,13,0,0,0,0-26Z" transform="translate(-339.74 -162.138)" fill="#6c63ff"/>
    <rect id="Rectangle_37" data-name="Rectangle 37" width="2" height="102.43" transform="translate(243.116 299.212) rotate(-89.173)" fill="#3f3d56"/>
    <path id="Path_46" data-name="Path 46" d="M859.069,737.555l-278.75.307a1.191,1.191,0,0,1,0-2.381l278.75-.307a1.191,1.191,0,0,1,0,2.381Z" transform="translate(-339.74 -162.138)" fill="#656565"/>
    <path id="Path_47" data-name="Path 47" d="M733.266,291.816a10.855,10.855,0,0,1,7.89,12.922,10.412,10.412,0,0,1-.545,1.633l27.767,25.751-18.855,4.432-23.477-25.133a10.825,10.825,0,0,1-5.535-12,10.36,10.36,0,0,1,12.48-7.674Q733.129,291.779,733.266,291.816Z" transform="translate(-339.74 -162.138)" fill="#fbd6bd"/>
    <path id="Path_48" data-name="Path 48" d="M759.213,321.067l-10.828,14.638,27.132,25.651a15.619,15.619,0,0,0,14.735,3.8h0A14.966,14.966,0,0,0,801.354,351l.718-59.045a16.136,16.136,0,0,0-14.947-16.4h0a15.3,15.3,0,0,0-16.43,14.086q-.018.237-.029.475a15.7,15.7,0,0,0,.009,1.691l3.3,42.707Z" transform="translate(-339.74 -162.138)" fill="#feaa4b"/>
  </g>
</svg>
