<svg xmlns="http://www.w3.org/2000/svg" width="738.833" height="594.939" viewBox="0 0 738.833 594.939">
  <g id="Group_1316" data-name="Group 1316" transform="translate(0)">
    <path id="Path_49" data-name="Path 49" d="M499.6,603.626a24.339,24.339,0,0,1,9.759-30.133c1.65-1,.142-3.6-1.517-2.595a27.05,27.05,0,0,0-10.836,34.244c.758,1.773,3.347.244,2.595-1.517Z" transform="translate(-230.75 -152.339)" fill="#3f3d56"/>
    <path id="Path_50" data-name="Path 50" d="M500.464,607.7c-4.053-7.18-3.1-15.772-1.641-23.536,1.522-8.105,3.516-16.335,1.791-24.578a22.562,22.562,0,0,0-5.361-10.751c-1.313-1.426-3.433.7-2.125,2.125,5.1,5.536,5.688,13.566,4.861,20.7-.975,8.412-3.738,16.609-3.4,25.157a27.245,27.245,0,0,0,3.277,12.4,1.5,1.5,0,0,0,2.595-1.517Z" transform="translate(-230.754 -152.375)" fill="#3f3d56"/>
    <path id="Path_51" data-name="Path 51" d="M522.255,630.571H471.174a4.512,4.512,0,0,1-4.507-4.507v-15a14.559,14.559,0,0,1,14.543-14.543H488.7a1.5,1.5,0,0,0,1.5-1.5V588a2.507,2.507,0,0,1,2.5-2.5h8.013a2.507,2.507,0,0,1,2.5,2.5v7.011a1.5,1.5,0,0,0,1.5,1.5h7.492a14.559,14.559,0,0,1,14.543,14.542v15A4.512,4.512,0,0,1,522.255,630.571Z" transform="translate(-230.795 -152.316)" fill="#656565"/>
    <path id="Path_52" data-name="Path 52" d="M497.467,540.561c1.075,5.708-.256,10.75-2.974,11.262s-5.793-3.7-6.869-9.407,2.232-15.2,2.232-15.2S496.391,534.853,497.467,540.561Z" transform="translate(-230.762 -152.408)" fill="#3e804b"/>
    <path id="Path_53" data-name="Path 53" d="M518.063,567.075c-3.406,4.7-7.983,7.2-10.223,5.582s-1.3-6.751,2.11-11.455,12.573-8.828,12.573-8.828S521.469,562.371,518.063,567.075Z" transform="translate(-230.732 -152.368)" fill="#3e804b"/>
    <path id="Path_54" data-name="Path 54" d="M405.6,243.626a24.339,24.339,0,0,1,9.759-30.133c1.65-1,.142-3.6-1.517-2.595a27.05,27.05,0,0,0-10.836,34.244c.758,1.773,3.347.244,2.595-1.517Z" transform="translate(-230.899 -152.909)" fill="#3f3d56"/>
    <path id="Path_55" data-name="Path 55" d="M406.464,247.7c-4.053-7.18-3.1-15.772-1.641-23.536,1.522-8.105,3.516-16.335,1.791-24.578a22.562,22.562,0,0,0-5.361-10.751c-1.313-1.426-3.433.7-2.125,2.125,5.1,5.536,5.688,13.566,4.861,20.7-.975,8.412-3.738,16.609-3.4,25.157a27.244,27.244,0,0,0,3.277,12.4,1.5,1.5,0,0,0,2.595-1.517Z" transform="translate(-230.902 -152.944)" fill="#3f3d56"/>
    <path id="Path_56" data-name="Path 56" d="M428.255,270.571H377.174a4.512,4.512,0,0,1-4.507-4.507v-15a14.559,14.559,0,0,1,14.543-14.543H394.7a1.5,1.5,0,0,0,1.5-1.5V228a2.507,2.507,0,0,1,2.5-2.5h8.013a2.507,2.507,0,0,1,2.5,2.5v7.011a1.5,1.5,0,0,0,1.5,1.5h7.492a14.559,14.559,0,0,1,14.543,14.542v15a4.512,4.512,0,0,1-4.508,4.507Z" transform="translate(-230.943 -152.885)" fill="#656565"/>
    <path id="Path_57" data-name="Path 57" d="M403.467,180.561c1.075,5.708-.256,10.75-2.974,11.262s-5.793-3.7-6.869-9.407,2.232-15.2,2.232-15.2S402.391,174.853,403.467,180.561Z" transform="translate(-230.911 -152.978)" fill="#3e804b"/>
    <path id="Path_58" data-name="Path 58" d="M424.063,207.075c-3.406,4.7-7.983,7.2-10.223,5.582s-1.3-6.751,2.11-11.455,12.573-8.828,12.573-8.828S427.468,202.371,424.063,207.075Z" transform="translate(-230.88 -152.938)" fill="#3e804b"/>
    <rect id="Rectangle_39" data-name="Rectangle 39" width="41" height="16" transform="translate(32 271.939)" fill="#0650fe"/>
    <rect id="Rectangle_40" data-name="Rectangle 40" width="41" height="15" transform="translate(32 321.939)" fill="#0650fe"/>
    <path id="Path_59" data-name="Path 59" d="M554.678,746.938H248.194a17.046,17.046,0,0,1-17.027-17.027V170.027A17.046,17.046,0,0,1,248.194,153H554.678A17.046,17.046,0,0,1,571.7,170.027V729.911A17.046,17.046,0,0,1,554.678,746.938ZM248.194,155a15.041,15.041,0,0,0-15.024,15.024V729.911a15.041,15.041,0,0,0,15.024,15.024H554.678A15.041,15.041,0,0,0,569.7,729.911V170.027A15.041,15.041,0,0,0,554.678,155Z" transform="translate(-231.167 -153)" fill="#3f3d56"/>
    <rect id="Rectangle_41" data-name="Rectangle 41" width="338.535" height="2.003" transform="translate(1.002 115.636)" fill="#3f3d56"/>
    <rect id="Rectangle_42" data-name="Rectangle 42" width="338.535" height="2.003" transform="translate(1.002 235.856)" fill="#3f3d56"/>
    <rect id="Rectangle_43" data-name="Rectangle 43" width="338.535" height="2.003" transform="translate(1.002 356.078)" fill="#3f3d56"/>
    <rect id="Rectangle_44" data-name="Rectangle 44" width="338.535" height="2.003" transform="translate(1.002 476.299)" fill="#3f3d56"/>
    <path id="Path_60" data-name="Path 60" d="M301.229,511.169H267.175a5.014,5.014,0,0,1-5.008-5.008V409.008A5.014,5.014,0,0,1,267.175,404h34.054a5.014,5.014,0,0,1,5.008,5.008v97.153A5.014,5.014,0,0,1,301.229,511.169ZM267.175,406a3.008,3.008,0,0,0-3,3v97.153a3.008,3.008,0,0,0,3,3h34.054a3.008,3.008,0,0,0,3-3V409.008a3.008,3.008,0,0,0-3-3Z" transform="translate(-231.118 -152.603)" fill="#3f3d56"/>
    <rect id="Rectangle_45" data-name="Rectangle 45" width="41" height="16" transform="translate(95 271.939)" fill="#656565"/>
    <rect id="Rectangle_46" data-name="Rectangle 46" width="41" height="15" transform="translate(95 321.939)" fill="#656565"/>
    <path id="Path_61" data-name="Path 61" d="M364.229,511.169H330.175a5.014,5.014,0,0,1-5.008-5.008V409.008A5.014,5.014,0,0,1,330.175,404h34.054a5.014,5.014,0,0,1,5.008,5.008v97.153a5.014,5.014,0,0,1-5.008,5.008ZM330.175,406a3.008,3.008,0,0,0-3,3v97.153a3.008,3.008,0,0,0,3,3h34.054a3.008,3.008,0,0,0,3-3V409.008a3.008,3.008,0,0,0-3-3Z" transform="translate(-231.019 -152.603)" fill="#3f3d56"/>
    <rect id="Rectangle_47" data-name="Rectangle 47" width="41" height="15" transform="translate(195 150.939)" fill="#ff6383"/>
    <rect id="Rectangle_48" data-name="Rectangle 48" width="41" height="15" transform="translate(195 199.939)" fill="#ff6383"/>
    <path id="Path_62" data-name="Path 62" d="M464.229,390.169H430.175a5.014,5.014,0,0,1-5.008-5.008V288.008A5.014,5.014,0,0,1,430.175,283h34.054a5.014,5.014,0,0,1,5.008,5.008v97.153a5.014,5.014,0,0,1-5.008,5.008ZM430.175,285a3.008,3.008,0,0,0-3,3v97.153a3.008,3.008,0,0,0,3,3h34.054a3.008,3.008,0,0,0,3-3V288.008a3.008,3.008,0,0,0-3-3Z" transform="translate(-230.86 -152.794)" fill="#3f3d56"/>
    <rect id="Rectangle_49" data-name="Rectangle 49" width="41" height="15" transform="translate(258 150.939)" fill="#63ffb1"/>
    <rect id="Rectangle_50" data-name="Rectangle 50" width="41" height="15" transform="translate(258 199.939)" fill="#63ffb1"/>
    <path id="Path_63" data-name="Path 63" d="M527.229,390.169H493.175a5.014,5.014,0,0,1-5.008-5.008V288.008A5.014,5.014,0,0,1,493.175,283h34.054a5.014,5.014,0,0,1,5.008,5.008v97.153A5.014,5.014,0,0,1,527.229,390.169ZM493.175,285a3.008,3.008,0,0,0-3,3v97.153a3.008,3.008,0,0,0,3,3h34.054a3.008,3.008,0,0,0,3-3V288.008a3.008,3.008,0,0,0-3-3Z" transform="translate(-230.761 -152.794)" fill="#3f3d56"/>
    <rect id="Rectangle_51" data-name="Rectangle 51" width="41.065" height="15.024" transform="matrix(0.936, -0.352, 0.352, 0.936, 148.141, 277.904)" fill="#6c63ff"/>
    <rect id="Rectangle_52" data-name="Rectangle 52" width="41.065" height="15.024" transform="matrix(0.936, -0.352, 0.352, 0.936, 165.404, 323.845)" fill="#6c63ff"/>
    <path id="Path_64" data-name="Path 64" d="M411.373,510.061a5.017,5.017,0,0,1-4.685-3.249l-34.174-90.944a5.014,5.014,0,0,1,2.926-6.449l31.878-11.978a5.007,5.007,0,0,1,6.449,2.927l34.174,90.944a5.014,5.014,0,0,1-2.926,6.449h0l-31.878,11.978A5,5,0,0,1,411.373,510.061Zm-2.292-110.94a3.01,3.01,0,0,0-1.059.194l-31.878,11.979a3.009,3.009,0,0,0-1.756,3.87l34.174,90.944a3,3,0,0,0,3.87,1.756l31.878-11.978a3.009,3.009,0,0,0,1.756-3.87l-34.174-90.944a3.01,3.01,0,0,0-2.811-1.949Z" transform="translate(-230.944 -152.614)" fill="#3f3d56"/>
    <rect id="Rectangle_53" data-name="Rectangle 53" width="41.065" height="15.024" transform="matrix(0.936, -0.352, 0.352, 0.936, 9.924, 158.715)" fill="#ff8e0d"/>
    <rect id="Rectangle_54" data-name="Rectangle 54" width="41.065" height="15.024" transform="matrix(0.936, -0.352, 0.352, 0.936, 27.186, 204.656)" fill="#ff8e0d"/>
    <path id="Path_65" data-name="Path 65" d="M273.373,391.061a5.017,5.017,0,0,1-4.685-3.249l-34.174-90.944a5.014,5.014,0,0,1,2.926-6.449l31.878-11.978a5.007,5.007,0,0,1,6.449,2.927l34.174,90.944a5.014,5.014,0,0,1-2.926,6.449h0l-31.878,11.978a5,5,0,0,1-1.764.323Zm-2.292-110.94a3.009,3.009,0,0,0-1.059.194l-31.878,11.979a3.009,3.009,0,0,0-1.756,3.87l34.174,90.944a3,3,0,0,0,3.87,1.756l31.878-11.978a3.009,3.009,0,0,0,1.756-3.87l-34.174-90.944a3.01,3.01,0,0,0-2.811-1.949Z" transform="translate(-231.162 -152.802)" fill="#3f3d56"/>
    <circle id="Ellipse_8" data-name="Ellipse 8" cx="31" cy="31" r="31" transform="translate(597 187.939)" fill="#2f2e41"/>
    <path id="Path_66" data-name="Path 66" d="M720.459,513.6a10.76,10.76,0,0,0,14.447-7.969l85.372-53.864L804.739,434.27l-79.068,58.483a10.818,10.818,0,0,0-5.212,20.843Z" transform="translate(-230.404 -152.555)" fill="#fbd6bd"/>
    <path id="Path_67" data-name="Path 67" d="M802.336,466.113a4.511,4.511,0,0,1-3.8-2.067l-9.886-15.363a4.508,4.508,0,0,1,1.15-6.092l33.082-23.911a14.812,14.812,0,1,1,16.656,24.484l-34.784,22.24A4.474,4.474,0,0,1,802.336,466.113Z" transform="translate(-230.287 -152.584)" fill="#feaa4b"/>
    <path id="Path_68" data-name="Path 68" d="M585.923,580.925H573.644L567.8,533.561h18.124Z" transform="translate(0.898 0.844)" fill="#fbd6bd"/>
    <path id="Path_69" data-name="Path 69" d="M564.9,577.346h23.681v14.91H549.991A14.91,14.91,0,0,1,564.9,577.346Z" transform="translate(0.87 0.913)" fill="#2f2e41"/>
    <path id="Path_70" data-name="Path 70" d="M643.176,571.756l-11.823,3.319-18.427-44.02,17.449-4.9Z" transform="translate(0.969 0.832)" fill="#fbd6bd"/>
    <path id="Path_71" data-name="Path 71" d="M14.91,0H38.591V14.91H0A14.91,14.91,0,0,1,14.91,0Z" transform="translate(608.571 578.926) rotate(-15.68)" fill="#2f2e41"/>
    <path id="Path_72" data-name="Path 72" d="M907.4,652.26,859.731,596l28.927-35.1a4.507,4.507,0,0,1,6.972.021L939.4,614.64Z" transform="translate(-230.173 -152.358)" fill="#3e804b"/>
    <path id="Path_73" data-name="Path 73" d="M861.651,596.413h0a15.97,15.97,0,0,1,2.59-3.459l27.611-27.992a6.143,6.143,0,0,1,4.082-1.833c3.155-.149,8.329.17,9.771,3.631l-37.277,30.5Z" transform="translate(-230.17 -152.351)" fill="#f2f2f2"/>
    <path id="Path_74" data-name="Path 74" d="M909.06,664.158a11.449,11.449,0,0,1-5.967-1.89l-.132-.136L859.3,595.358l7.245-.7,38.828-30.286a4.508,4.508,0,0,1,6.533,1.069l42.443,64.239a4.52,4.52,0,0,1-1.24,6.221l-41.071,27.694a7.961,7.961,0,0,1-2.978.563Z" transform="translate(-230.174 -152.351)" fill="#3e804b"/>
    <path id="Path_75" data-name="Path 75" d="M893.576,618.441a2.5,2.5,0,0,1-2.081-1.1l-5.016-7.45a2.508,2.508,0,0,1,.679-3.476l25.732-17.323a2.509,2.509,0,0,1,3.476.679l5.015,7.45a2.508,2.508,0,0,1-.679,3.476l-25.732,17.323a2.5,2.5,0,0,1-1.395.425Z" transform="translate(-230.131 -152.311)" fill="#fcfcff"/>
    <path id="Path_76" data-name="Path 76" d="M797.06,727.1a5.488,5.488,0,0,1-5.447-5.012c-2.185-24.824-13.147-149.937-14.351-175.2-1.337-28.074,22.027-72.486,22.264-72.931l.162-.305,11.548,1.443v1.343l10.992,1.293,21.272,2.059,6.09,74.436,2.693,50.482,25.3,103.106a4.483,4.483,0,0,1-3.191,5.423l-22.018,6a4.526,4.526,0,0,1-5.521-3.114L826.121,643.3a1.5,1.5,0,0,0-2.947.458l2.193,71.008a5.352,5.352,0,0,1-1.62,3.918c-5.047,4.74-18.382,7.27-25.882,8.357a5.57,5.57,0,0,1-.8.058Z" transform="translate(-230.304 -152.493)" fill="#131313"/>
    <path id="Path_77" data-name="Path 77" d="M863.191,414.394c-3.494-3.642-26.515,1.363-31.626,6.729l-34.991,57.2,57.869,10.766,12.785-72.673Z" transform="translate(-230.273 -152.589)" fill="#feaa4b"/>
    <path id="Path_78" data-name="Path 78" d="M848.005,559.71a11.265,11.265,0,0,1-3.663-.61c-3.362-1.153-7.482-2.36-12.247-3.585-20.867-5.366-28.234-22.545-21.9-51.061l.16-.724a211.068,211.068,0,0,1,33.008-75.381l2.454-3.525a26.44,26.44,0,0,1,27.088-10.773c9.389,1.937,14.43,4.743,14.984,8.341,1.086,7.061-19.885,92.415-28.952,128.785A11.253,11.253,0,0,1,848,559.71Z" transform="translate(-230.255 -152.588)" fill="#ff8e0d"/>
    <path id="Path_79" data-name="Path 79" d="M776.19,548.747a5.287,5.287,0,0,1-1.607-.25l-6.764-2.164a5.277,5.277,0,0,1-3.246-7.093L800.461,455a78.817,78.817,0,0,1,34.177-37.887h0a1.844,1.844,0,0,1,1.464-.137,1.659,1.659,0,0,1,1.006.893c4.221,9.285-18.752,53.228-37.211,88.535-9.452,18.079-17.615,33.694-18.544,38.146a5.272,5.272,0,0,1-5.164,4.193Z" transform="translate(-230.324 -152.583)" fill="#ff8e0d"/>
    <path id="Path_80" data-name="Path 80" d="M887.061,567.888a10.76,10.76,0,0,0,.923-16.473L887.7,450.472l-23.077,3.872L872.17,552.4a10.818,10.818,0,0,0,14.891,15.488Z" transform="translate(-230.165 -152.53)" fill="#fbd6bd"/>
    <path id="Path_81" data-name="Path 81" d="M868.277,475.573a4.506,4.506,0,0,1-4.5-4.209L861.1,430.633a14.813,14.813,0,1,1,29.592-1.107l.365,41.285a4.516,4.516,0,0,1-4.454,4.547l-18.268.214Z" transform="translate(-230.171 -152.586)" fill="#feaa4b"/>
    <circle id="Ellipse_9" data-name="Ellipse 9" cx="24.6" cy="24.6" r="24.6" transform="translate(596.996 202.775)" fill="#fbd6bd"/>
    <path id="Path_82" data-name="Path 82" d="M872.262,397.276c1.835-5.839,3.519-12.723-.112-17.65-2.616-3.55-7.313-4.924-11.719-5.121s-8.824.55-13.22.2-9.042-2.085-11.275-5.887c-2.9-4.931-.443-11.723,4.212-15.043s10.805-3.784,16.471-3.011a35.533,35.533,0,0,1,19.323,8.643c5.266,4.861,8.7,11.867,8.546,19.032s-4.172,14.3-10.576,17.517" transform="translate(-230.213 -152.688)" fill="#2f2e41"/>
    <path id="Path_83" data-name="Path 83" d="M866.09,343.57c-5.889-1.814-8.605-9.6-5.972-15.171s9.366-8.488,15.479-7.712,11.5,4.7,15.215,9.614,5.956,10.776,7.824,16.648,3.421,11.871,5.973,17.481a54.254,54.254,0,0,0,44.52,30.992c4.136.3,8.427.085,12.2-1.644s6.93-5.214,7.352-9.339c2.145,14.652-6.379,30.224-19.878,36.313s-30.813,2.172-40.377-9.134c-9.346-11.049-10.793-26.648-10.568-41.117.062-3.968.208-8.011-.888-11.825s-3.69-7.44-7.469-8.652c-3.049-.977-6.351-.273-9.477.42s-6.445,1.36-9.472.315-5.464-4.486-4.244-7.447" transform="translate(-230.174 -152.735)" fill="#2f2e41"/>
    <path id="Path_84" data-name="Path 84" d="M963.669,747H699.252a1,1,0,1,1,0-2H963.669a1,1,0,1,1,0,2Z" transform="translate(-230.428 -152.064)" fill="#656565"/>
  </g>
</svg>
